<svg width="1421" height="916" xmlns="http://www.w3.org/2000/svg" xmlns:xlink="http://www.w3.org/1999/xlink" xml:space="preserve" overflow="hidden"><g transform="translate(-227 -178)"><rect x="230.5" y="181.5" width="779" height="909" stroke="#262626" stroke-width="6.875" stroke-linejoin="round" stroke-miterlimit="10" fill="none"/><path d="M1083 328C1083 303.147 1103.15 283 1128 283 1152.85 283 1173 303.147 1173 328 1173 352.853 1152.85 373 1128 373 1103.15 373 1083 352.853 1083 328Z" fill="#1F78B5" fill-rule="evenodd"/><text font-family="Meiryo,Meiryo_MSFontService,sans-serif" font-weight="400" font-size="92" transform="matrix(1 0 0 1 1225.98 359)">初期分布</text><text font-family="Meiryo,Meiryo_MSFontService,sans-serif" font-weight="400" font-size="92" transform="matrix(1 0 0 1 1225.98 502)">目標分布</text><text font-family="Meiryo,Meiryo_MSFontService,sans-serif" font-weight="400" font-size="92" transform="matrix(1 0 0 1 1225.98 645)">最適</text><text font-family="Meiryo,Meiryo_MSFontService,sans-serif" font-weight="400" font-size="92" transform="matrix(1 0 0 1 1409.31 645)">輸送</text><text font-family="Meiryo,Meiryo_MSFontService,sans-serif" font-weight="400" font-size="92" transform="matrix(1 0 0 1 1225.98 788)">提案手法</text><path d="M1083 476.5C1083 451.371 1103.15 431 1128 431 1152.85 431 1173 451.371 1173 476.5 1173 501.629 1152.85 522 1128 522 1103.15 522 1083 501.629 1083 476.5Z" fill="#FF7F00" fill-rule="evenodd"/><path d="M324 345C324 309.102 353.102 280 389 280 424.899 280 454 309.102 454 345 454 380.899 424.899 410 389 410 353.102 410 324 380.899 324 345Z" fill="#FF7F00" fill-rule="evenodd"/><path d="M785 345C785 309.102 814.102 280 850 280 885.899 280 915 309.102 915 345 915 380.899 885.899 410 850 410 814.102 410 785 380.899 785 345Z" fill="#1F78B5" fill-rule="evenodd"/><path d="M324 926C324 890.102 353.102 861 389 861 424.899 861 454 890.102 454 926 454 961.899 424.899 991 389 991 353.102 991 324 961.899 324 926Z" fill="#1F78B5" fill-rule="evenodd"/><path d="M785 926C785 890.102 814.102 861 850 861 885.899 861 915 890.102 915 926 915 961.899 885.899 991 850 991 814.102 991 785 961.899 785 926Z" fill="#FF7F00" fill-rule="evenodd"/><path d="M1.59144e-05-13.75 243.061-13.7497 243.061 13.7503-1.59144e-05 13.75ZM229.311-41.2497 311.811 0.000360892 229.311 41.2503Z" transform="matrix(-1 0 0 1 774.811 345)"/><path d="M463 917.25 706.061 917.25 706.061 944.75 463 944.75ZM692.311 889.75 774.811 931 692.311 972.25Z"/><path d="M860.812 447.5 860.813 772.709 840.188 772.709 840.187 447.5ZM881.438 762.397 850.5 824.272 819.563 762.397Z" fill="#E41A1C"/><path d="M1.19358e-05-10.3125 260.249-10.3122 260.248 10.3128-1.19358e-05 10.3125ZM249.936-30.9372 311.811 0.000360892 249.936 30.9378Z" fill="#E41A1C" transform="matrix(-1 0 0 1 775.311 434.5)"/><path d="M463.5 846.188 723.748 846.188 723.748 866.813 463.5 866.813ZM713.436 825.563 775.311 856.5 713.436 887.438Z" fill="#E41A1C"/><path d="M10.3125-9.87787e-06 10.3128 325.209-10.3122 325.209-10.3125 9.87787e-06ZM30.9378 314.897 0.000360892 376.772-30.9372 314.897Z" fill="#E41A1C" transform="matrix(1 0 0 -1 389.5 824.272)"/><path d="M1063.5 604.188 1141.86 604.188 1141.86 624.813 1063.5 624.813ZM1131.55 583.563 1193.42 614.5 1131.55 645.438Z"/><path d="M1063.5 744.188 1141.86 744.188 1141.86 764.813 1063.5 764.813ZM1131.55 723.563 1193.42 754.5 1131.55 785.438Z" fill="#E41A1C"/></g></svg>