<svg width="2165" height="1973" xmlns="http://www.w3.org/2000/svg" xmlns:xlink="http://www.w3.org/1999/xlink" xml:space="preserve" overflow="hidden"><g transform="translate(-234 -309)"><path d="M241 741C241 705.102 270.101 676 306 676 341.898 676 371 705.102 371 741 371 776.899 341.898 806 306 806 270.101 806 241 776.899 241 741Z" stroke="#1F78B5" stroke-width="13.75" stroke-linejoin="round" stroke-miterlimit="10" fill="#FFFFFF" fill-rule="evenodd"/><path d="M658 523C658 487.101 687.101 458 723 458 758.898 458 788 487.101 788 523 788 558.899 758.898 588 723 588 687.101 588 658 558.899 658 523Z" stroke="#1F78B5" stroke-width="13.75" stroke-linejoin="round" stroke-miterlimit="10" fill="#FFFFFF" fill-rule="evenodd"/><path d="M684 1114C684 1078.1 713.102 1049 749 1049 784.898 1049 814 1078.1 814 1114 814 1149.9 784.898 1179 749 1179 713.102 1179 684 1149.9 684 1114Z" stroke="#1F78B5" stroke-width="13.75" stroke-linejoin="round" stroke-miterlimit="10" fill="#FFFFFF" fill-rule="evenodd"/><path d="M1078 829C1078 793.102 1107.1 764 1143 764 1178.9 764 1208 793.102 1208 829 1208 864.899 1178.9 894 1143 894 1107.1 894 1078 864.899 1078 829Z" stroke="#1F78B5" stroke-width="13.75" stroke-linejoin="round" stroke-miterlimit="10" fill="#FFFFFF" fill-rule="evenodd"/><path d="M1078 1429C1078 1393.1 1107.1 1364 1143 1364 1178.9 1364 1208 1393.1 1208 1429 1208 1464.9 1178.9 1494 1143 1494 1107.1 1494 1078 1464.9 1078 1429Z" stroke="#1F78B5" stroke-width="13.75" stroke-linejoin="round" stroke-miterlimit="10" fill="#FFFFFF" fill-rule="evenodd"/><path d="M1624 1136C1624 1100.1 1653.1 1071 1689 1071 1724.9 1071 1754 1100.1 1754 1136 1754 1171.9 1724.9 1201 1689 1201 1653.1 1201 1624 1171.9 1624 1136Z" stroke="#1F78B5" stroke-width="13.75" stroke-linejoin="round" stroke-miterlimit="10" fill="#FFFFFF" fill-rule="evenodd"/><path d="M1106 1082C1106 1046.1 1135.1 1017 1171 1017 1206.9 1017 1236 1046.1 1236 1082 1236 1117.9 1206.9 1147 1171 1147 1135.1 1147 1106 1117.9 1106 1082Z" stroke="#1F78B5" stroke-width="13.75" stroke-linejoin="round" stroke-miterlimit="10" fill="#FFFFFF" fill-rule="evenodd"/><path d="M459 611C459 575.101 487.878 546 523.5 546 559.122 546 588 575.101 588 611 588 646.899 559.122 676 523.5 676 487.878 676 459 646.899 459 611Z" stroke="#1F78B5" stroke-width="13.75" stroke-linejoin="round" stroke-miterlimit="10" fill="#FFFFFF" fill-rule="evenodd"/><path d="M1236 1758C1236 1722.1 1265.1 1693 1301 1693 1336.9 1693 1366 1722.1 1366 1758 1366 1793.9 1336.9 1823 1301 1823 1265.1 1823 1236 1793.9 1236 1758Z" stroke="#1F78B5" stroke-width="13.75" stroke-linejoin="round" stroke-miterlimit="10" fill="#FFFFFF" fill-rule="evenodd"/><path d="M1102 2210C1102 2174.1 1131.1 2145 1167 2145 1202.9 2145 1232 2174.1 1232 2210 1232 2245.9 1202.9 2275 1167 2275 1131.1 2275 1102 2245.9 1102 2210Z" stroke="#1F78B5" stroke-width="13.75" stroke-linejoin="round" stroke-miterlimit="10" fill="#FFFFFF" fill-rule="evenodd"/><path d="M1494 2204C1494 2168.1 1523.1 2139 1559 2139 1594.9 2139 1624 2168.1 1624 2204 1624 2239.9 1594.9 2269 1559 2269 1523.1 2269 1494 2239.9 1494 2204Z" stroke="#1F78B5" stroke-width="13.75" stroke-linejoin="round" stroke-miterlimit="10" fill="#FFFFFF" fill-rule="evenodd"/><path d="M1762 2074C1762 2038.1 1791.1 2009 1827 2009 1862.9 2009 1892 2038.1 1892 2074 1892 2109.9 1862.9 2139 1827 2139 1791.1 2139 1762 2109.9 1762 2074Z" stroke="#1F78B5" stroke-width="13.75" stroke-linejoin="round" stroke-miterlimit="10" fill="#FFFFFF" fill-rule="evenodd"/><path d="M1976 1260C1976 1224.1 2005.1 1195 2041 1195 2076.9 1195 2106 1224.1 2106 1260 2106 1295.9 2076.9 1325 2041 1325 2005.1 1325 1976 1295.9 1976 1260Z" stroke="#1F78B5" stroke-width="13.75" stroke-linejoin="round" stroke-miterlimit="10" fill="#FFFFFF" fill-rule="evenodd"/><path d="M702 822C702 786.101 731.101 757 767 757 802.898 757 832 786.101 832 822 832 857.898 802.898 887 767 887 731.101 887 702 857.898 702 822Z" stroke="#1F78B5" stroke-width="13.75" stroke-linejoin="round" stroke-miterlimit="10" fill="#FFFFFF" fill-rule="evenodd"/><path d="M489 919C489 883.101 518.102 854 554 854 589.899 854 619 883.101 619 919 619 954.899 589.899 984 554 984 518.102 984 489 954.899 489 919Z" stroke="#1F78B5" stroke-width="13.75" stroke-linejoin="round" stroke-miterlimit="10" fill="#FFFFFF" fill-rule="evenodd"/><path d="M1404 1023.5C1404 987.878 1433.1 959 1469 959 1504.9 959 1534 987.878 1534 1023.5 1534 1059.12 1504.9 1088 1469 1088 1433.1 1088 1404 1059.12 1404 1023.5Z" stroke="#1F78B5" stroke-width="13.75" stroke-linejoin="round" stroke-miterlimit="10" fill="#FFFFFF" fill-rule="evenodd"/><path d="M1366 1284C1366 1248.1 1395.1 1219 1431 1219 1466.9 1219 1496 1248.1 1496 1284 1496 1319.9 1466.9 1349 1431 1349 1395.1 1349 1366 1319.9 1366 1284Z" stroke="#1F78B5" stroke-width="13.75" stroke-linejoin="round" stroke-miterlimit="10" fill="#FFFFFF" fill-rule="evenodd"/><path d="M1469 1933.5C1469 1897.88 1498.1 1869 1534 1869 1569.9 1869 1599 1897.88 1599 1933.5 1599 1969.12 1569.9 1998 1534 1998 1498.1 1998 1469 1969.12 1469 1933.5Z" stroke="#1F78B5" stroke-width="13.75" stroke-linejoin="round" stroke-miterlimit="10" fill="#FFFFFF" fill-rule="evenodd"/><path d="M1400 1569C1400 1533.1 1429.1 1504 1465 1504 1500.9 1504 1530 1533.1 1530 1569 1530 1604.9 1500.9 1634 1465 1634 1429.1 1634 1400 1604.9 1400 1569Z" stroke="#1F78B5" stroke-width="13.75" stroke-linejoin="round" stroke-miterlimit="10" fill="#FFFFFF" fill-rule="evenodd"/><path d="M1212 1998.5C1212 1962.88 1241.1 1934 1277 1934 1312.9 1934 1342 1962.88 1342 1998.5 1342 2034.12 1312.9 2063 1277 2063 1241.1 2063 1212 2034.12 1212 1998.5Z" stroke="#1F78B5" stroke-width="13.75" stroke-linejoin="round" stroke-miterlimit="10" fill="#FFFFFF" fill-rule="evenodd"/><path d="M1892 1004.5C1892 968.878 1920.88 940 1956.5 940 1992.12 940 2021 968.878 2021 1004.5 2021 1040.12 1992.12 1069 1956.5 1069 1920.88 1069 1892 1040.12 1892 1004.5Z" stroke="#1F78B5" stroke-width="13.75" stroke-linejoin="round" stroke-miterlimit="10" fill="#FFFFFF" fill-rule="evenodd"/><path d="M1680 861C1680 825.102 1709.1 796 1745 796 1780.9 796 1810 825.102 1810 861 1810 896.899 1780.9 926 1745 926 1709.1 926 1680 896.899 1680 861Z" stroke="#1F78B5" stroke-width="13.75" stroke-linejoin="round" stroke-miterlimit="10" fill="#FFFFFF" fill-rule="evenodd"/><path d="M2262 1325C2262 1289.1 2291.1 1260 2327 1260 2362.9 1260 2392 1289.1 2392 1325 2392 1360.9 2362.9 1390 2327 1390 2291.1 1390 2262 1360.9 2262 1325Z" stroke="#1F78B5" stroke-width="13.75" stroke-linejoin="round" stroke-miterlimit="10" fill="#FFFFFF" fill-rule="evenodd"/><path d="M2167 1038C2167 1002.1 2196.1 973 2232 973 2267.9 973 2297 1002.1 2297 1038 2297 1073.9 2267.9 1103 2232 1103 2196.1 1103 2167 1073.9 2167 1038Z" stroke="#1F78B5" stroke-width="13.75" stroke-linejoin="round" stroke-miterlimit="10" fill="#FFFFFF" fill-rule="evenodd"/><path d="M2106 764C2106 728.101 2134.88 699 2170.5 699 2206.12 699 2235 728.101 2235 764 2235 799.899 2206.12 829 2170.5 829 2134.88 829 2106 799.899 2106 764Z" stroke="#1F78B5" stroke-width="13.75" stroke-linejoin="round" stroke-miterlimit="10" fill="#FFFFFF" fill-rule="evenodd"/><path d="M918 1205.5C918 1169.88 947.102 1141 983 1141 1018.9 1141 1048 1169.88 1048 1205.5 1048 1241.12 1018.9 1270 983 1270 947.102 1270 918 1241.12 918 1205.5Z" stroke="#1F78B5" stroke-width="13.75" stroke-linejoin="round" stroke-miterlimit="10" fill="#FFFFFF" fill-rule="evenodd"/><path d="M849 666C849 630.101 878.102 601 914 601 949.898 601 979 630.101 979 666 979 701.899 949.898 731 914 731 878.102 731 849 701.899 849 666Z" stroke="#1F78B5" stroke-width="13.75" stroke-linejoin="round" stroke-miterlimit="10" fill="#FFFFFF" fill-rule="evenodd"/><path d="M573.245 651.592 697.886 749.451 689.395 760.266 564.754 662.407ZM700.97 734.391 720.678 776.086 675.496 766.836Z" fill="#1F78B5"/><path d="M772.158 562.893 840.565 598.275 834.248 610.488 765.841 575.106ZM840.776 582.903 867.94 620.173 821.825 619.542Z" fill="#1F78B5"/><path d="M963.144 705.886 1069.53 760.588 1063.24 772.816 956.856 718.114ZM1069.7 745.216 1096.95 782.422 1050.84 781.901Z" fill="#1F78B5"/><path d="M1211.91 823.347 1398.9 952.735 1391.08 964.042 1204.09 834.654ZM1401.07 937.516 1423.26 977.948 1377.6 971.437Z" fill="#1F78B5"/><path d="M3.9637-5.61736 140.776 90.9198 132.849 102.155-3.9637 5.61736ZM143.086 75.7214 164.899 116.356 119.304 109.426Z" fill="#1F78B5" transform="matrix(1 0 0 -1 1515 977.356)"/><path d="M354.291 780.964 480.881 849.977 474.299 862.05 347.709 793.036ZM481.426 834.614 507.771 872.467 461.681 870.831Z" fill="#1F78B5"/><path d="M819.325 865.306 929.915 1125 917.264 1130.39 806.675 870.694ZM939.872 1113.29 937.058 1159.32 901.92 1129.45Z" fill="#1F78B5"/><path d="M604.867 960.144 683.93 1039.38 674.196 1049.1 595.133 969.856ZM688.807 1024.81 703.342 1068.57 659.607 1053.94Z" fill="#1F78B5"/><path d="M1.11229-6.78443 282.036 39.2722 279.812 52.8411-1.11229 6.78443ZM277.476 24.5911 314.846 51.6181 270.803 65.2976Z" fill="#1F78B5" transform="matrix(1 0 0 -1 1791 815.618)"/><path d="M2022.53 997.297 2134.89 1022.93 2131.83 1036.34 2019.47 1010.7ZM2131.24 1008 2166.87 1037.28 2122.07 1048.21Z" fill="#1F78B5"/><path d="M2108.63 1253.65 2233.82 1305.46 2228.57 1318.17 2103.37 1266.35ZM2232.73 1290.13 2262.96 1324.96 2216.95 1328.24Z" fill="#1F78B5"/><path d="M1737.11 1175.46 1945.35 1242.76 1941.12 1255.85 1732.89 1188.54ZM1943.04 1227.56 1975.94 1259.88 1930.35 1266.82Z" fill="#1F78B5"/><path d="M1035.11 1247.85 1087.31 1349.3 1075.08 1355.59 1022.89 1254.15ZM1096.39 1336.9 1096.92 1383.02 1059.71 1355.77Z" fill="#1F78B5"/><path d="M6.59963-1.92625 34.9826 95.3184 21.7834 99.1709-6.59963 1.92625ZM46.2556 84.8662 38.0142 130.243 6.65783 96.4237Z" fill="#1F78B5" transform="matrix(-1 0 0 1 1469.01 1088)"/><path d="M1437.72 1347.54 1464.16 1469.62 1450.72 1472.53 1424.28 1350.46ZM1476.14 1459.99 1464.72 1504.67 1435.83 1468.72Z" fill="#1F78B5"/><path d="M1195.11 1471.85 1291.62 1658.78 1279.4 1665.09 1182.89 1478.15ZM1300.68 1646.37 1301.28 1692.48 1264.03 1665.29Z" fill="#1F78B5"/><path d="M1516.75 1611.24 1767.98 1995.27 1756.48 2002.79 1505.25 1618.76ZM1775.73 1981.99 1781.05 2027.8 1741.21 2004.57Z" fill="#1F78B5"/><path d="M1471.59 1632.06 1530.91 1833.4 1517.73 1837.29 1458.41 1635.94ZM1542.16 1822.92 1534.03 1868.32 1502.59 1834.58Z" fill="#1F78B5"/><path d="M1540.77 1996.79 1559.83 2103.38 1546.3 2105.8 1527.23 1999.21ZM1572.16 2094.19 1559.12 2138.43 1531.55 2101.45Z" fill="#1F78B5"/><path d="M6.71632-1.46856 23.601 75.7518 10.1683 78.6889-6.71632 1.46856ZM35.565 66.0983 24.2274 110.802-4.73289 74.9097Z" fill="#1F78B5" transform="matrix(-1 0 0 1 1301.23 1823)"/><path d="M5.79919-3.69256 51.3948 67.9157 39.7964 75.3008-5.79919 3.69256ZM59.3006 54.7313 64.0584 100.604 24.5055 76.8867Z" fill="#1F78B5" transform="matrix(-1 0 0 1 1231.06 2044)"/><path d="M1220.77 1122.25 1360 1213.54 1352.46 1225.04 1213.23 1133.75ZM1361.79 1198.27 1384.97 1238.14 1339.17 1232.77Z" fill="#1F78B5"/><path d="M1814.77 856.053 1890.89 929.515 1881.34 939.409 1805.23 865.947ZM1895.49 914.847 1910.85 958.333 1866.85 944.529Z" fill="#1F78B5"/><path d="M530.774 674.828 555.591 818.292 542.042 820.636 517.225 677.172ZM567.968 809.174 554.676 853.336 527.321 816.205Z" fill="#1F78B5"/><path d="M729.654 586.272 764.929 722.076 751.62 725.532 716.346 589.729ZM776.509 711.965 766.917 757.075 736.583 722.335Z" fill="#1F78B5"/><path d="M6.83442-0.745831 20.7648 126.905 7.09597 128.397-6.83442 0.745831ZM33.6878 118.579 17.6595 161.823-7.31871 123.054Z" fill="#1F78B5" transform="matrix(-1 0 0 1 766.66 887)"/><path d="M920.779 729.857 984.096 1105.18 970.537 1107.47 907.221 732.144ZM996.511 1096.12 983.035 1140.22 955.835 1102.98Z" fill="#1F78B5"/><path d="M797.391 1153.55 887.853 1187.11 883.071 1200 792.609 1166.45ZM886.189 1171.83 917.691 1205.51 871.843 1210.5Z" fill="#1F78B5"/><path d="M1149.7 892.46 1170.3 982.08 1156.89 985.159 1136.3 895.54ZM1182.16 972.3 1171.29 1017.12 1141.95 981.538Z" fill="#1F78B5"/><path d="M1537.6 1018.14 1617.21 1067.13 1610 1078.84 1530.4 1029.86ZM1618.56 1051.82 1642.88 1091 1596.94 1086.95Z" fill="#1F78B5"/><path d="M3.90285-5.65981 122.499 76.1205 114.693 87.4401-3.90285 5.65981ZM124.644 60.8981 146.895 101.295 101.227 94.8569Z" fill="#1F78B5" transform="matrix(1 0 0 -1 1496 1283.29)"/><path d="M1.52773-6.70311 143.91 25.748 140.855 39.1542-1.52773 6.70311ZM140.263 10.814 175.898 40.0897 131.096 51.0326Z" fill="#1F78B5" transform="matrix(1 0 0 -1 1735 1090.09)"/><path d="M5.31648-4.35898 105.647 118.01 95.0139 126.728-5.31648 4.35898ZM111.921 103.976 122.125 148.951 80.022 130.13Z" fill="#1F78B5" transform="matrix(1 0 0 -1 2002 958.951)"/><path d="M5.46183-4.17541 84.4387 99.134 73.515 107.485-5.46183 4.17541ZM91.187 85.3213 99.8539 130.618 58.4159 110.374Z" fill="#1F78B5" transform="matrix(1 0 0 -1 2086 1214.62)"/><path d="M1583.17 1972.9 1734.65 2051.55 1728.31 2063.75 1576.83 1985.1ZM1734.88 2036.18 1761.99 2073.49 1715.88 2072.79Z" fill="#1F78B5"/><path d="M1326.52 2038.1 1487.16 2134 1480.11 2145.8 1319.48 2049.9ZM1488.3 2118.67 1513.15 2157.52 1467.16 2154.08Z" fill="#1F78B5"/><path d="M1350.52 1798.09 1461.79 1864.39 1454.75 1876.21 1343.48 1809.91ZM1462.92 1849.06 1487.8 1887.89 1441.81 1884.5Z" fill="#1F78B5"/><path d="M5.51878-4.09985 56.7884 64.9139 45.7509 73.1136-5.51878 4.09985ZM63.7261 51.1954 71.7689 96.6076 30.6135 75.7945Z" fill="#1F78B5" transform="matrix(-1 0 0 1 1418.77 1615)"/><path d="M6.8177-0.885785 30.6827 182.798 17.0473 184.57-6.8177 0.885785ZM43.4324 174.209 28.294 217.773 2.52616 179.524Z" fill="#1F78B5" transform="matrix(-1 0 0 1 1171.29 1147)"/><text fill="#404040" font-family="Meiryo,Meiryo_MSFontService,sans-serif" font-weight="400" font-size="92" transform="matrix(1 0 0 1 932.697 427)">state</text><path d="M813.647 417.283 824.686 440.574 895.506 407.008 917.584 453.59 846.764 487.156 857.804 510.447 789.143 485.944Z" fill="#404040" fill-rule="evenodd"/><text fill="#404040" font-family="Meiryo,Meiryo_MSFontService,sans-serif" font-weight="400" font-size="92" transform="matrix(1 0 0 1 1142.94 613)">transition</text><path d="M1035.55 645.317 1053.75 663.568 1109.24 608.228 1145.64 644.73 1090.15 700.07 1108.35 718.321 1035.44 718.219Z" fill="#404040" fill-rule="evenodd"/></g></svg>