<svg width="348" height="310" xmlns="http://www.w3.org/2000/svg" xmlns:xlink="http://www.w3.org/1999/xlink" overflow="hidden"><defs><clipPath id="clip0"><rect x="36" y="24" width="348" height="310"/></clipPath></defs><g clip-path="url(#clip0)" transform="translate(-36 -24)"><path d="M37 327 121.885 183 383 183 298.115 327Z" fill="#BFBFBF" fill-rule="evenodd"/><text font-family="Segoe UI,Segoe UI_MSFontService,sans-serif" font-weight="400" font-size="24" transform="translate(175.063 313)">M (p<tspan font-size="24" x="49.3333" y="0">-</tspan><tspan font-size="24" x="59" y="0">dim.)</tspan></text><path d="M0.774811-0.632193 167.836 204.117 166.287 205.381-0.774811 0.632193ZM171.383 199.501 174.647 214.046 161.053 207.93Z" fill="#262626" transform="matrix(1 0 0 -1 100 277.046)"/><text font-family="Segoe UI,Segoe UI_MSFontService,sans-serif" font-weight="400" font-size="24" transform="translate(236.324 57)">y</text><path d="M280 58 280 232.316" stroke="#262626" stroke-width="2" stroke-miterlimit="8" stroke-dasharray="8 6" fill="none" fill-rule="evenodd"/><path d="M0.250997-0.967988 7.9949 1.03999 7.49291 2.97596-0.250997 0.967988ZM13.8028 2.54597 21.5467 4.55395 21.0447 6.48992 13.3008 4.48195ZM27.3547 6.05993 35.0986 8.06791 34.5966 10.0039 26.8527 7.99591ZM40.9065 9.57389 48.6504 11.5819 48.1484 13.5178 40.4045 11.5099ZM54.4583 13.0879 62.2022 15.0958 61.7002 17.0318 53.9563 15.0238ZM68.0101 16.6018 75.7541 18.6098 75.2521 20.5458 67.5082 18.5378ZM81.562 20.1158 89.3059 22.1237 88.8039 24.0597 81.06 22.0517ZM95.1138 23.6297 102.858 25.6377 102.356 27.5737 94.6118 25.5657ZM108.666 27.1437 116.41 29.1517 115.908 31.0876 108.164 29.0797ZM122.217 30.6576 129.961 32.6656 129.459 34.6016 121.715 32.5936ZM135.769 34.1716 143.513 36.1796 143.011 38.1156 135.267 36.1076ZM149.321 37.6856 157.065 39.6935 156.563 41.6295 148.819 39.6215ZM161.336 34.947 172.569 44.7469 157.99 47.8535Z" fill="#262626" transform="matrix(1 0 0 -1 100 276.747)"/><text font-family="Segoe UI,Segoe UI_MSFontService,sans-serif" font-weight="400" font-size="24" transform="translate(302.223 250)">ŷ<tspan font-size="24" x="-8.35718" y="-97">e</tspan></text><path d="M273 58C273 54.134 276.134 51 280 51 283.866 51 287 54.134 287 58 287 61.866 283.866 65 280 65 276.134 65 273 61.866 273 58Z" fill="#262626" fill-rule="evenodd"/><path d="M273 232.5C273 228.358 276.134 225 280 225 283.866 225 287 228.358 287 232.5 287 236.642 283.866 240 280 240 276.134 240 273 236.642 273 232.5Z" fill="#262626" fill-rule="evenodd"/><text font-family="Segoe UI,Segoe UI_MSFontService,sans-serif" font-weight="400" font-size="24" transform="translate(78.5904 302)">O<tspan font-size="24" x="-8.16661" y="-211">R</tspan><tspan font-size="16" x="6.16672" y="-218">n</tspan></text></g></svg>