<svg width="330" height="202" xmlns="http://www.w3.org/2000/svg" xmlns:xlink="http://www.w3.org/1999/xlink" overflow="hidden"><defs><clipPath id="clip0"><rect x="395" y="491" width="330" height="202"/></clipPath></defs><g clip-path="url(#clip0)" transform="translate(-395 -491)"><path d="M0.0115655-0.999933 252.579 1.92133 252.556 3.9212-0.0115655 0.999933ZM251.312-3.76038 264.567 3.06005 251.157 9.57207Z" fill="#262626" transform="matrix(1 0 0 -1 427 634.06)"/><path d="M1-8.10525e-07 1.0001 117.53-0.999905 117.53-1 8.10525e-07ZM6.66676 116.196 0.000104987 129.53-6.66657 116.196Z" fill="#262626" transform="matrix(1 0 0 -1 427 634.53)"/><text font-family="Segoe UI,Segoe UI_MSFontService,sans-serif" font-weight="400" font-size="21" transform="translate(699.339 639)">θ<tspan font-size="21" x="-291.337" y="-26">c</tspan></text><path d="M565.98 519.014C593.246 517.979 608.165 575.737 619.483 594.53L629 607.76 629 632.169 493 634 493 606.717 495.638 603.604C516.952 576.529 542.123 519.919 565.98 519.014Z" fill="#1F78B5" fill-rule="evenodd" fill-opacity="0.501961"/><path d="M427 608 689.45 608" stroke="#262626" stroke-width="2" stroke-miterlimit="8" stroke-dasharray="8 6" fill="none" fill-rule="evenodd"/><path d="M427.5 634.414C452.271 635.098 463.405 632.021 486.536 612.871 509.667 593.721 538.839 520.54 566.286 519.514 593.732 518.488 608.75 575.767 620.143 594.404 631.536 613.041 651.128 629.627 659.5 631.337" stroke="#1F78B5" stroke-width="3" stroke-miterlimit="8" fill="none" fill-rule="evenodd"/><text fill="#1F78B5" font-family="Segoe UI,Segoe UI_MSFontService,sans-serif" font-weight="400" font-size="21" transform="translate(619.752 534)">1<tspan font-family="Meiryo,Meiryo_MSFontService,sans-serif" font-size="21" x="11" y="0">－</tspan>α</text><path d="M507 648 616.444 648 616.444 651 507 651ZM508.5 657 493.5 649.5 508.5 642ZM614.944 642 629.944 649.5 614.944 657Z" fill="#E41A1C"/><path d="M0 0 47.863 38.5356" stroke="#1F78B5" stroke-width="2" stroke-miterlimit="8" fill="none" fill-rule="evenodd" transform="matrix(1 0 0 -1 568 572.536)"/><text fill="#E41A1C" font-family="Segoe UI,Segoe UI_MSFontService,sans-serif" font-weight="400" font-size="21" transform="translate(555.548 676)">S</text></g></svg>