<svg width="311" height="252" xmlns="http://www.w3.org/2000/svg" xmlns:xlink="http://www.w3.org/1999/xlink" overflow="hidden"><defs><clipPath id="clip0"><rect x="21" y="440" width="311" height="252"/></clipPath></defs><g clip-path="url(#clip0)" transform="translate(-21 -440)"><path d="M0.0115655-0.999933 252.579 1.92133 252.556 3.9212-0.0115655 0.999933ZM251.312-3.76038 264.567 3.06005 251.157 9.57207Z" fill="#262626" transform="matrix(1 0 0 -1 35 642.06)"/><path d="M1-5.58278e-07 1.0001 176.055-0.999902 176.055-1 5.58278e-07ZM6.66676 174.721 0.000104987 188.055-6.66657 174.721Z" fill="#262626" transform="matrix(1 0 0 -1 35 642.055)"/><text font-family="Cambria Math,Cambria Math_MSFontService,sans-serif" font-weight="400" font-size="15" transform="translate(108.397 653)">∧<tspan font-family="Segoe UI,Segoe UI_MSFontService,sans-serif" font-size="21" x="198.426" y="-7">θ</tspan><tspan font-family="Segoe UI,Segoe UI_MSFontService,sans-serif" font-size="21" x="46.2981" y="22">θ</tspan><tspan font-family="Segoe UI,Segoe UI_MSFontService,sans-serif" font-size="14" x="58.2981" y="26">0</tspan><tspan fill="#E41A1C" font-family="Segoe UI,Segoe UI_MSFontService,sans-serif" font-size="21" x="102.224" y="-130">η(θ)</tspan><tspan font-family="Segoe UI,Segoe UI_MSFontService,sans-serif" font-size="21" x="-23.7599" y="-166">ℓ(θ)/n</tspan><tspan font-family="Segoe UI,Segoe UI_MSFontService,sans-serif" font-size="21" x="-0.82309" y="22">θ</tspan><tspan font-family="Segoe UI,Segoe UI_MSFontService,sans-serif" font-size="14" x="11.1769" y="26">n</tspan></text><path d="M37.5001 608.5C76.7319 564.388 115.964 520.276 157.464 518.553 198.964 516.83 242.732 557.496 286.5 598.161" stroke="#E41A1C" stroke-width="3" stroke-miterlimit="8" fill="none" fill-rule="evenodd"/><path d="M33.5001 617.5C61.6255 615.95 61.7116 609.751 74.7852 590.637 87.8589 571.523 92.8474 507.637 111.942 502.816 131.036 497.994 159.592 549.826 189.351 561.708 219.111 573.589 245.172 573.589 290.5 574.106" stroke="#262626" stroke-width="3" stroke-miterlimit="8" stroke-dasharray="12 9" fill="none" fill-rule="evenodd"/><path d="M0 0 0.000104987 123.734" stroke="#262626" stroke-width="2" stroke-miterlimit="8" stroke-dasharray="2 2" fill="none" fill-rule="evenodd" transform="matrix(1 0 0 -1 160 641.734)"/><path d="M0 0 0.000104987 136.063" stroke="#262626" stroke-width="2" stroke-miterlimit="8" stroke-dasharray="2 2" fill="none" fill-rule="evenodd" transform="matrix(1 0 0 -1 114 641.063)"/></g></svg>