<svg width="341" height="265" xmlns="http://www.w3.org/2000/svg" xmlns:xlink="http://www.w3.org/1999/xlink" overflow="hidden"><defs><clipPath id="clip0"><rect x="505" y="54" width="341" height="265"/></clipPath></defs><g clip-path="url(#clip0)" transform="translate(-505 -54)"><text font-family="Segoe UI,Segoe UI_MSFontService,sans-serif" font-weight="400" font-size="21" transform="translate(669.987 84)">R<tspan font-size="14" x="12.8333" y="-6">n</tspan></text><path d="M506 187.5C506 115.979 581.664 58 675 58 768.336 58 844 115.979 844 187.5 844 259.021 768.336 317 675 317 581.664 317 506 259.021 506 187.5Z" stroke="#262626" stroke-width="2" stroke-miterlimit="8" fill="none" fill-rule="evenodd"/><path d="M524 202C524 146.772 582.427 102 654.5 102 726.573 102 785 146.772 785 202 785 257.228 726.573 302 654.5 302 582.427 302 524 257.228 524 202Z" stroke="#262626" stroke-width="2" stroke-miterlimit="8" fill="#F2F2F2" fill-rule="evenodd"/><path d="M556 232C556 199.415 590.25 173 632.5 173 674.75 173 709 199.415 709 232 709 264.585 674.75 291 632.5 291 590.25 291 556 264.585 556 232Z" stroke="#262626" stroke-width="2" stroke-miterlimit="8" fill="#BFBFBF" fill-rule="evenodd"/><text font-family="Segoe UI,Segoe UI_MSFontService,sans-serif" font-weight="400" font-size="21" transform="translate(598.187 144)">M (p-dim.)<tspan font-size="21" x="-20.9666" y="76">M</tspan><tspan font-size="14" x="-1.79993" y="80">0</tspan><tspan font-size="21" x="11.7001" y="76">(s</tspan>-dim.)<tspan font-size="21" x="26.8964" y="117">H</tspan><tspan font-size="14" x="42.063" y="121">0</tspan><tspan font-size="21" x="132.481" y="58">H</tspan><tspan font-size="14" x="147.648" y="62">1</tspan></text></g></svg>