<svg width="906" height="611" xmlns="http://www.w3.org/2000/svg" xmlns:xlink="http://www.w3.org/1999/xlink" overflow="hidden"><defs><clipPath id="clip0"><rect x="24" y="57" width="906" height="611"/></clipPath></defs><g clip-path="url(#clip0)" transform="translate(-24 -57)"><rect x="36" y="576" width="454" height="48" fill="#E41A1C"/><text font-family="Meiryo,Meiryo_MSFontService,sans-serif" font-weight="400" font-size="24" transform="translate(114.556 128)">1. <tspan font-size="24" x="31.3333" y="0">前置きと準備</tspan><tspan font-size="24" x="0" y="37">2. </tspan><tspan font-size="24" x="31.3333" y="37">確率と</tspan>1<tspan font-size="24" x="118.167" y="37">次元の確率変数</tspan><tspan font-size="24" x="0" y="75">3. </tspan><tspan font-size="24" x="31.3333" y="75">多次元の確率変数</tspan><tspan font-size="24" x="0" y="112">4. </tspan><tspan font-size="24" x="31.3333" y="112">統計量と標本分布</tspan><tspan font-size="24" x="0" y="229">5. </tspan><tspan font-size="24" x="31.3333" y="229">統計的決定理論の枠組み</tspan><tspan font-size="24" x="-59.9508" y="349">6. </tspan><tspan font-size="24" x="-28.6174" y="349">十分統計量</tspan><tspan font-size="24" x="-59.9508" y="386">7. </tspan><tspan font-size="24" x="-28.6174" y="386">推定論</tspan><tspan font-size="24" x="215.996" y="349">8. </tspan><tspan font-size="24" x="247.329" y="349">検定論</tspan><tspan font-size="24" x="215.996" y="386">9. </tspan><tspan font-size="24" x="247.329" y="386">区間推定</tspan><tspan fill="#FFFFFF" font-size="24" x="-59.1545" y="481">10. </tspan><tspan fill="#FFFFFF" font-size="24" x="-12.9879" y="481">正規分布、</tspan><tspan fill="#FFFFFF" font-size="24" x="107.012" y="481">2</tspan><tspan fill="#FFFFFF" font-size="24" x="121.845" y="481">項分布に関する推測</tspan><tspan font-size="19" x="428.941" y="-45">その他の話題</tspan><tspan font-size="24" x="525.798" y="25">11. </tspan><tspan font-size="24" x="571.965" y="25">線形モデル</tspan><tspan font-size="24" x="480.207" y="127">12. </tspan>ノンパラメトリック法<tspan font-size="24" x="551.87" y="390">13. </tspan><tspan font-size="24" x="598.037" y="390">漸近理論</tspan><tspan font-size="24" x="544.088" y="228">14. </tspan>ベイズ法<tspan font-size="19" x="-13.9862" y="-45">確率と統計の基礎</tspan><tspan font-size="19" x="-78.3404" y="302">良い点推定とは？</tspan><tspan font-size="19" x="240.764" y="302">良い検定とは？</tspan><tspan font-size="19" x="-13.9862" y="190">問題設定と準備</tspan><tspan font-size="19" x="469.408" y="433">7</tspan><tspan font-size="19" x="481.074" y="433">章と</tspan><tspan font-size="19" x="518.408" y="433">8</tspan><tspan font-size="19" x="530.074" y="433">章に関する証明</tspan><tspan font-size="19" x="469.408" y="66">回帰分析と分散分析を統一的に理解</tspan></text><rect x="100.5" y="93.5001" width="325" height="165" stroke="#1F78B5" stroke-width="3" stroke-miterlimit="8" fill="none"/><rect x="100.5" y="324.5" width="325" height="46" stroke="#1F78B5" stroke-width="3" stroke-miterlimit="8" fill="none"/><path d="M243 292.5 252.75 292.5 252.75 271 272.25 271 272.25 292.5 282 292.5 262.5 312Z" fill="#1F78B5" fill-rule="evenodd"/><rect x="36.5001" y="441.5" width="189" height="91" stroke="#1F78B5" stroke-width="3" stroke-miterlimit="8" fill="none"/><rect x="300.5" y="441.5" width="189" height="91" stroke="#1F78B5" stroke-width="3" stroke-miterlimit="8" fill="none"/><path d="M182.852 398.762 191.275 403.625 202.205 384.695 219.05 394.42 208.121 413.351 216.543 418.214 189.972 425.333Z" fill="#1F78B5" fill-rule="evenodd"/><rect x="36.5001" y="577.5" width="453" height="45" stroke="#1F78B5" stroke-width="3" stroke-miterlimit="8" fill="none"/><path d="M0 21.8591 9.72576 21.8591 9.72576 0 29.1773 0 29.1773 21.8591 38.9031 21.8591 19.4516 41.3107Z" fill="#1F78B5" fill-rule="evenodd" transform="matrix(-0.866025 0.5 0.5 0.866025 335.222 381.194)"/><path d="M375 554.5 384.75 554.5 384.75 533 404.25 533 404.25 554.5 414 554.5 394.5 574Z" fill="#1F78B5" fill-rule="evenodd"/><path d="M111 554.5 120.75 554.5 120.75 533 140.25 533 140.25 554.5 150 554.5 130.5 574Z" fill="#1F78B5" fill-rule="evenodd"/><text font-family="Meiryo,Meiryo_MSFontService,sans-serif" font-weight="400" font-size="19" transform="translate(140.039 650)">常用される手法を改めて整理</text><rect x="583.5" y="486.5" width="311" height="46" stroke="#1F78B5" stroke-width="3" stroke-miterlimit="8" fill="none"/><rect x="584.5" y="223.5" width="310" height="46" stroke="#1F78B5" stroke-width="3" stroke-miterlimit="8" fill="none"/><rect x="584.5" y="122.5" width="310" height="45" stroke="#1F78B5" stroke-width="3" stroke-miterlimit="8" fill="none"/><rect x="584.5" y="324.5" width="310" height="45" stroke="#1F78B5" stroke-width="3" stroke-miterlimit="8" fill="none"/><text font-family="Meiryo,Meiryo_MSFontService,sans-serif" font-weight="400" font-size="19" transform="translate(583.964 397)">ベイズ統計を簡単に紹介<tspan font-size="19" x="0" y="-101">ノンパラを簡単に紹介</tspan></text><path d="M256 548 369.96 548" stroke="#1F78B5" stroke-width="8" stroke-miterlimit="8" fill="none" fill-rule="evenodd"/><path d="M489 495 561.179 495 561.179 503 489 503ZM557.179 487 581.179 499 557.179 511Z" fill="#1F78B5"/><path d="M367 546.56C366.968 531.372 379.03 519.033 393.942 519 408.853 518.967 420.968 531.253 421 546.44 421 546.46 421 546.48 421 546.5" stroke="#1F78B5" stroke-width="8" stroke-miterlimit="8" fill="none" fill-rule="evenodd"/><path d="M259 495 259 550.99" stroke="#1F78B5" stroke-width="8" stroke-miterlimit="8" fill="none" fill-rule="evenodd"/><path d="M417 548 531.099 548" stroke="#1F78B5" stroke-width="8" stroke-miterlimit="8" fill="none" fill-rule="evenodd"/><path d="M225 499 259.275 499" stroke="#1F78B5" stroke-width="8" stroke-miterlimit="8" fill="none" fill-rule="evenodd"/><path d="M523 521 561.246 521 561.246 529 523 529ZM557.246 513 581.246 525 557.246 537Z" fill="#1F78B5"/><path d="M527 522 527 547.999" stroke="#1F78B5" stroke-width="8" stroke-miterlimit="8" fill="none" fill-rule="evenodd"/><rect x="545" y="93" width="383" height="327" stroke="#1F78B5" stroke-width="2" stroke-miterlimit="8" stroke-dasharray="8 6" fill="none"/></g></svg>