<svg width="2048" height="936" xmlns="http://www.w3.org/2000/svg" xmlns:xlink="http://www.w3.org/1999/xlink" xml:space="preserve" overflow="hidden"><g transform="translate(-216 -1541)"><path d="M216.5 2082.06 954.777 2082.06 954.777 2088.94 216.5 2088.94ZM950.194 2062.58 996.028 2085.5 950.194 2108.42Z" fill="#262626"/><path d="M603.062 2476.03 603.063 1737.75 609.938 1737.75 609.937 2476.03ZM583.584 1742.33 606.5 1696.5 629.417 1742.33Z" fill="#262626"/><text font-family="Meiryo,Meiryo_MSFontService,sans-serif" font-weight="400" font-size="92" transform="matrix(1 0 0 1 1028.45 2120)">Re</text><text font-family="Meiryo,Meiryo_MSFontService,sans-serif" font-weight="400" font-size="92" transform="matrix(1 0 0 1 542.37 1660)">Im</text><path d="M575 1858C575 1840.33 589.551 1826 607.5 1826 625.449 1826 640 1840.33 640 1858 640 1875.67 625.449 1890 607.5 1890 589.551 1890 575 1875.67 575 1858Z" fill="#1F78B5" fill-rule="evenodd"/><path d="M575 2312.5C575 2294.55 589.551 2280 607.5 2280 625.449 2280 640 2294.55 640 2312.5 640 2330.45 625.449 2345 607.5 2345 589.551 2345 575 2330.45 575 2312.5Z" fill="#1F78B5" fill-rule="evenodd"/><path d="M377 1922.5C377 1904.55 391.551 1890 409.5 1890 427.449 1890 442 1904.55 442 1922.5 442 1940.45 427.449 1955 409.5 1955 391.551 1955 377 1940.45 377 1922.5Z" fill="#1F78B5" fill-rule="evenodd"/><path d="M377 2248.5C377 2230.55 391.551 2216 409.5 2216 427.449 2216 442 2230.55 442 2248.5 442 2266.45 427.449 2281 409.5 2281 391.551 2281 377 2266.45 377 2248.5Z" fill="#1F78B5" fill-rule="evenodd"/><path d="M3.40674-9.73354 84.6603 18.7052 77.8468 38.1723-3.40674 9.73354ZM81.7402-4.16861 129.921 45.4724 61.2998 54.2326Z" fill="#E41A1C" transform="matrix(1 0 0 -1 443.5 1907.97)"/><path d="M446.907 2252.77 528.16 2281.21 521.347 2300.67 440.093 2272.23ZM525.24 2258.33 573.421 2307.97 504.8 2316.73Z" fill="#E41A1C"/><text font-family="Meiryo,Meiryo_MSFontService,sans-serif" font-weight="400" font-size="92" transform="matrix(1 0 0 1 633.836 2184)">O</text><path d="M1282.5 2082.06 2020.78 2082.06 2020.78 2088.94 1282.5 2088.94ZM2016.19 2062.58 2062.03 2085.5 2016.19 2108.42Z" fill="#262626"/><path d="M1669.06 2476.03 1669.06 1737.75 1675.94 1737.75 1675.94 2476.03ZM1649.58 1742.33 1672.5 1696.5 1695.42 1742.33Z" fill="#262626"/><text font-family="Meiryo,Meiryo_MSFontService,sans-serif" font-weight="400" font-size="92" transform="matrix(1 0 0 1 2094.87 2120)">Re</text><text font-family="Meiryo,Meiryo_MSFontService,sans-serif" font-weight="400" font-size="92" transform="matrix(1 0 0 1 1608.79 1660)">Im</text><path d="M1468 2085.5C1468 2067.55 1482.55 2053 1500.5 2053 1518.45 2053 1533 2067.55 1533 2085.5 1533 2103.45 1518.45 2118 1500.5 2118 1482.55 2118 1468 2103.45 1468 2085.5Z" fill="#1F78B5" fill-rule="evenodd"/><path d="M1641 2085.5C1641 2067.55 1655.55 2053 1673.5 2053 1691.45 2053 1706 2067.55 1706 2085.5 1706 2103.45 1691.45 2118 1673.5 2118 1655.55 2118 1641 2103.45 1641 2085.5Z" fill="#1F78B5" fill-rule="evenodd"/><path d="M1468 1858C1468 1840.33 1482.55 1826 1500.5 1826 1518.45 1826 1533 1840.33 1533 1858 1533 1875.67 1518.45 1890 1500.5 1890 1482.55 1890 1468 1875.67 1468 1858Z" fill="#1F78B5" fill-rule="evenodd"/><path d="M1468 2312.5C1468 2294.55 1482.55 2280 1500.5 2280 1518.45 2280 1533 2294.55 1533 2312.5 1533 2330.45 1518.45 2345 1500.5 2345 1482.55 2345 1468 2330.45 1468 2312.5Z" fill="#1F78B5" fill-rule="evenodd"/><path d="M1511.81 1903.5 1511.81 1981.86 1491.19 1981.86 1491.19 1903.5ZM1532.44 1971.55 1501.5 2033.42 1470.56 1971.55Z" fill="#E41A1C"/><text font-family="Meiryo,Meiryo_MSFontService,sans-serif" font-weight="400" font-size="92" transform="matrix(1 0 0 1 1700.25 2184)">O</text><path d="M10.3125-2.86458e-05 10.3127 78.3587-10.3123 78.3588-10.3125 2.86458e-05ZM30.9377 68.0462 0.000360892 129.921-30.9373 68.0463Z" fill="#E41A1C" transform="matrix(1 0 0 -1 1501.5 2265.42)"/><path d="M1459.44 2095.81 1420.06 2095.81 1420.06 2075.19 1459.44 2075.19ZM1430.38 2116.44 1368.5 2085.5 1430.37 2054.56Z" fill="#E41A1C"/><path d="M10.3125-4.09226e-05 10.3127 39.3823-10.3123 39.3824-10.3125 4.09226e-05ZM30.9376 29.0698 0.000360892 90.9449-30.9374 29.07Z" fill="#E41A1C" transform="matrix(1.83697e-16 1 1 -1.83697e-16 1544.5 2085.5)"/><path d="M1297 2085.5C1297 2067.55 1311.55 2053 1329.5 2053 1347.45 2053 1362 2067.55 1362 2085.5 1362 2103.45 1347.45 2118 1329.5 2118 1311.55 2118 1297 2103.45 1297 2085.5Z" fill="#1F78B5" fill-rule="evenodd"/></g></svg>