<svg width="393" height="135" xmlns="http://www.w3.org/2000/svg" xmlns:xlink="http://www.w3.org/1999/xlink" overflow="hidden"><defs><clipPath id="clip0"><rect x="418" y="44" width="393" height="135"/></clipPath></defs><g clip-path="url(#clip0)" transform="translate(-418 -44)"><path d="M418 118 783.953 118 783.953 120 418 120ZM782.619 112.333 795.953 119 782.619 125.667Z" fill="#262626"/><text font-family="Meiryo,Meiryo_MSFontService,sans-serif" font-weight="400" font-size="21" transform="translate(466.996 159)">0<tspan font-size="21" x="262.097" y="0">1</tspan><tspan font-size="21" x="127.883" y="0">x</tspan></text><path d="M576 108 576 130.677" stroke="#262626" stroke-width="2" stroke-miterlimit="8" fill="none" fill-rule="evenodd"/><path d="M626 108 626 130.677" stroke="#262626" stroke-width="2" stroke-miterlimit="8" fill="none" fill-rule="evenodd"/><path d="M582.667 84 618.932 84.0001 618.932 86.0001 582.667 86ZM584 91.6667 576 85 584 78.3334ZM617.599 78.3334 625.599 85.0001 617.599 91.6668Z" fill="#262626"/><text font-family="Meiryo,Meiryo_MSFontService,sans-serif" font-weight="400" font-size="21" transform="translate(585.6 72)">2<tspan font-size="21" x="16.0934" y="0">ε</tspan></text><path d="M735 108 735 130.677" stroke="#262626" stroke-width="2" stroke-miterlimit="8" fill="none" fill-rule="evenodd"/><path d="M473 108 473 130.677" stroke="#262626" stroke-width="2" stroke-miterlimit="8" fill="none" fill-rule="evenodd"/><path d="M594 119C594 115.134 597.134 112 601 112 604.866 112 608 115.134 608 119 608 122.866 604.866 126 601 126 597.134 126 594 122.866 594 119Z" fill="#262626" fill-rule="evenodd"/></g></svg>